<svg xmlns="http://www.w3.org/2000/svg" viewBox="0 0 320 200" fill="none">
  <rect width="320" height="200" rx="16" fill="#f1f5f9"/>
  <rect x="0" y="0" width="72" height="200" rx="16" fill="#0f172a"/>
  <rect x="14" y="24" width="44" height="8" rx="4" fill="#334155"/>
  <rect x="14" y="44" width="36" height="6" rx="3" fill="#475569" opacity=".7"/>
  <rect x="14" y="60" width="40" height="6" rx="3" fill="#38bdf8" opacity=".8"/>
  <rect x="14" y="76" width="32" height="6" rx="3" fill="#475569" opacity=".5"/>
  <rect x="88" y="18" width="140" height="8" rx="4" fill="#94a3b8" opacity=".4"/>
  <rect x="88" y="40" width="216" height="32" rx="8" fill="#fff" stroke="#e2e8f0"/>
  <rect x="100" y="52" width="14" height="14" rx="3" fill="#f87171" opacity=".75"/>
  <rect x="120" y="54" width="80" height="8" rx="4" fill="#64748b" opacity=".35"/>
  <rect x="88" y="80" width="216" height="32" rx="8" fill="#fff" stroke="#e2e8f0"/>
  <rect x="100" y="92" width="14" height="14" rx="3" fill="#4ade80" opacity=".75"/>
  <rect x="120" y="94" width="96" height="8" rx="4" fill="#64748b" opacity=".35"/>
  <rect x="88" y="120" width="216" height="32" rx="8" fill="#fff" stroke="#bae6fd"/>
  <rect x="100" y="132" width="14" height="14" rx="3" fill="#38bdf8" opacity=".75"/>
  <rect x="120" y="134" width="72" height="8" rx="4" fill="#64748b" opacity=".35"/>
  <circle cx="280" cy="170" r="24" fill="#2e44b1" opacity=".1"/>
</svg>
