<svg version="1.2" xmlns="http://www.w3.org/2000/svg" viewBox="0 0 1552 1645" width="1552" height="1645">
	<title>vector</title>
	<style>
		.s0 { fill: #000000 } 
	</style>
	<path class="s0" d="m299.5 309.9h-299.5c0 9.6 7.4 16.7 14.9 23.9 84.1 81 200.4 193.1 284.6 274.1 5 4.8 12.4 0 12.4-4.7v-281.4c0-7.1-5-11.9-12.4-11.9zm685.7-309.9h-22.3v278.9c0 16.7-14.9 31-32.2 31h-269.8c-7.4 0-12.4 4.8-12.4 11.9v1022.8c0 16.7-14.8 31-32.2 31h-267.3c-7.4 0-12.4 9.5-7.4 14.3 59.4 57.2 175.7 169.3 235.1 226.5 14.9 14.3 37.2 28.6 64.4 28.6h257.4c24.8 0 44.6-19.1 44.6-42.9v-577c0-7.1 4.9-11.9 12.4-11.9h27.2c289.6 0 569.3-169.2 569.3-507.8 0-338.5-212.9-505.4-566.8-505.4z"/>
</svg>