<svg version="1.2" xmlns="http://www.w3.org/2000/svg" viewBox="0 0 1567 275" width="1567" height="275">
	<title>TEP</title>
	<style>
		.s0 { fill: #ffffff } 
	</style>
	<g id="layer1">
		<g id="g4">
			<g id="g6">
				<g id="g8">
					<g id="g10">
						<path id="path12" fill-rule="evenodd" class="s0" d="m483 86.7h26.7v144.4h-26.7zm443.3 6.5v21.8c-3.2-1.4-7-2-10.8-2-7.6 0-12.7 3.6-12.7 11.7v11.5h19.1v22.9h-19.1v72h-26.8v-72h-12.5v-22.9h12.5v-12.5c0-24.7 15.8-33.6 32.9-33.6 7 0 12 1 17.4 3.1zm-529 6.5v25.8h-32.2v109h-27.1v-109h-32.3v-25.8zm205.7 94h-53.7c2.2 13.9 10.6 19.4 24.4 19.4 8 0 15.5-1 23.5-4.1v19.7c-7.8 3.6-16.5 5-27.1 5-31.3 0-48.5-19-48.5-50.1 0-30.6 15.6-50 42.3-50 27.3 0 42.3 21.7 39.1 60.1zm95.7-10.1c0 29.3-10.8 50.1-34.5 50.1-10.8 0-17.8-4.6-22.4-9.7v50.6h-26.7v-138.4h23.9v9.6c4.4-6.1 12.2-12.2 24.6-12.2 25.7 0 35.1 23.3 35.1 50zm89.5 10.1h-53.7c2.2 13.9 10.6 19.4 24.3 19.4 8 0 15.6-1 23.6-4.1v19.7c-7.8 3.6-16.6 5-27.2 5-31.3 0-48.5-19-48.5-50.1 0-30.6 15.6-50 42.4-50 27.3 0 42.3 21.7 39.1 60.1zm368.4-48.6c7-8.2 15.6-11.5 25.9-11.5 19.4 0 28.8 13.4 28.8 30.5v67h-26.4v-61.5c0-7.7-3.6-11.5-9.9-11.5-5.6 0-10 3.2-13.4 8.5v64.5h-26.1v-61.5c0-7.7-3.8-11.5-10-11.5-5.4 0-10 3.2-13.4 8.9v64.1h-26.3v-94.9h23.9v8.9c5.6-7.2 13.8-11.5 24.2-11.5 10.3 0 18.1 4.3 22.7 11.5zm144 27.3v33.8c0 4.7 2.4 6.3 6.2 6.3 1 0 2.2-0.2 3.2-0.4v18.6c-4 1.2-8 1.8-12.8 1.8-7.4 0-14.1-2.2-18.1-7.3-7.2 5.7-15.8 8.5-25.8 8.5-16.3 0-30.5-9.5-30.5-29.5 0-20.4 15-30.5 36.3-30.5 5.2 0 9.6 0.6 15.4 1.8v-5.1c0-7.7-3.6-14.5-16.8-14.5-10.8 0-20.9 2.6-28.9 6v-22.8c8.8-3.1 20.5-5.5 31.5-5.5 26.6 0 40.3 11.7 40.3 38.8zm98.1-8.5v67.2h-26.7v-61.5c0-8.1-4-11.5-11-11.5-7 0-11.8 4.6-14.4 9.5v63.5h-26.7v-94.9h23.9v8.9c5.4-6.4 13.4-11.5 26-11.5 15.1 0 28.9 10.5 28.9 30.3zm167.1 29.8h-53.7c2.2 13.9 10.6 19.4 24.4 19.4 8 0 15.5-1 23.5-4.1v19.7c-7.8 3.6-16.5 5-27.1 5-31.3 0-48.5-19-48.5-50.1 0-30.6 15.6-50 42.3-50 27.3 0 42.3 21.7 39.1 60.1zm-597.3 40c-23.7 0-43-22.4-43-50.1 0-27.6 19.3-50 43-50 23.8 0 43 22.4 43 50 0 27.7-19.2 50.1-43 50.1zm507.8-95.8v22.4c-5-2.6-10.2-4-16.8-4-13.9 0-22.7 10.1-22.7 27.3 0 17.2 7.8 26.9 21.5 26.9 8.2 0 14-1.7 19-3.9v22.9c-6 2.8-13.4 4.2-23.2 4.2-25.7 0-44.3-17.6-44.3-49.3 0-32.6 19.2-50.8 45.5-50.8 8.2 0 14.4 1.2 21 4.3zm-622.5-3.7v26.9c-12.8-1.6-23 3-28.2 16.2v53.8h-26.7v-94.9h23.9v14.4c5.3-10.9 14.6-16.5 27-16.6q1.9 0 4 0.2zm222.2 0v26.9c-12.7-1.6-22.9 3-28.1 16.2v53.8h-26.7v-94.9h23.9v14.4c5.2-10.9 14.6-16.5 27-16.6q1.9 0 3.9 0.2zm-605.9 60.1h-53.7c2.2 13.9 10.6 19.4 24.3 19.4 8 0 15.6-1 23.6-4.2v19.8c-7.8 3.6-16.6 5-27.2 5-31.3 0-48.5-19-48.5-50.1 0-30.6 15.6-50 42.3-50 27.4 0 42.3 21.7 39.2 60.1zm78.2-18.2h30.2c0-13.4-4-20.8-14.2-20.8-10.2 0-15 8-16 20.8zm185.2 0h30.1c0-13.4-4-20.8-14.2-20.8-10.1 0-14.9 8-15.9 20.8zm777.6 0h30.2c0-13.4-4-20.8-14.2-20.8-10.2 0-15 8-16 20.8zm-1095.7 0.6h30.1c0-13.4-4-20.8-14.2-20.8-10.1 0-14.9 7.9-15.9 20.8zm569.2 6.8c0-14.9-7.2-27-16.1-27-8.8 0-16 12.1-16 27 0 15 7.2 27 16 27 8.9 0 16.1-12 16.1-27zm-342.8-17.1v34.4c3.2 6 8.2 9.7 14.6 9.7 11.3 0 15.7-9.7 15.7-26.9 0-17.2-4.4-26.9-15.7-26.9-6.4 0-11.4 3.8-14.6 9.7zm606.7 37c0 8.5 5.2 12.3 11.6 12.3 6 0 10.2-1.8 14.4-5.6v-18.2c-3.4-0.8-6.4-1.1-9.6-1.1-9.8 0-16.4 3.1-16.4 12.6z"/>
					</g>
				</g>
			</g>
		</g>
		<g id="#742b8eff-5">
			<path class="s0" d="m49.1 50.9h-49.1c0 1.6 1.1 3.1 2.1 4.1 13.7 13.3 32.7 31.6 46.4 44.8 1.1 1.1 2.2 0 2.2-1v-46.3c0-1-1.1-2.1-2.2-2.1zm112.4-50.9h-3.6v45.8c0 2.6-2.2 5.1-5.3 5.1h-43.8c-1.1 0-2.1 1.1-2.1 2.1v168.1c0 2.5-2.1 5.1-5.3 5.1h-43.8c-1.1 0-2.1 1.5-1.1 2 9.5 9.2 29.1 28 38.6 37.2 2.6 2.6 5.8 4.6 10.5 4.6h42.2c4.2 0 7.4-3.1 7.4-7.1v-94.8c0-1 1.1-2 2.1-2h4.8c47.5 0 92.8-28.1 92.8-83.6 0-55.5-35.8-82.5-93.4-82.5z"/>
		</g>
	</g>
</svg>